<svg id="bootstrap-seeklogo.com" xmlns="http://www.w3.org/2000/svg" viewBox="0 0 171.063 171.063">
  <defs>
    <style>
      .cls-1 {
        fill: #563d7c;
      }

      .cls-2 {
        fill: #fff;
      }
    </style>
  </defs>
  <path id="Path_52" data-name="Path 52" class="cls-1" d="M0,149.005a22.056,22.056,0,0,0,22.057,22.057H149.005a22.057,22.057,0,0,0,22.057-22.057V22.057A22.056,22.056,0,0,0,149.005,0H22.057A22.056,22.056,0,0,0,0,22.057Z"/>
  <path id="Path_53" data-name="Path 53" class="cls-2" d="M94.85,92.422V68.2h21.323a33.2,33.2,0,0,1,5.875.508,14.678,14.678,0,0,1,5,1.813,9.659,9.659,0,0,1,3.481,3.627,12.042,12.042,0,0,1,1.306,5.947q0,6.527-3.917,9.429a16.37,16.37,0,0,1-10.009,2.9ZM72.075,50.5V154.073h50.191a52.952,52.952,0,0,0,13.563-1.741,36.274,36.274,0,0,0,11.75-5.367,26.437,26.437,0,0,0,8.2-9.356,28.508,28.508,0,0,0,3.046-13.563,28.7,28.7,0,0,0-4.714-16.609q-4.715-6.891-14.289-9.647a25.808,25.808,0,0,0,10.517-8.558q3.554-5.222,3.554-13.055A27.781,27.781,0,0,0,151.5,63.991a19.9,19.9,0,0,0-6.746-7.906,29.121,29.121,0,0,0-10.444-4.279A64.5,64.5,0,0,0,120.815,50.5ZM94.85,136.375V107.944h24.8q7.4,0,11.9,3.409t4.5,11.387a14.235,14.235,0,0,1-1.378,6.673,10.946,10.946,0,0,1-3.7,4.134,15.665,15.665,0,0,1-5.367,2.176,30.4,30.4,0,0,1-6.383.652Z" transform="translate(-23.914 -16.755)"/>
</svg>
