<svg xmlns="http://www.w3.org/2000/svg" xmlns:xlink="http://www.w3.org/1999/xlink" viewBox="0 0 1151.45 930.953"><defs><style>.a{fill:#fff;}.b{fill:#970000;}.c{fill:#1c1919;}.d{fill:#8d0000;}.e,.h{fill:#c40000;}.f,.g{fill:#3d2727;}.f{font-size:64px;font-family:SegoeUI-Bold, Segoe UI;font-weight:700;}.g,.h{font-size:30px;font-family:SegoeUI, Segoe UI;}.i{fill:#f5b020;}.j{filter:url(#c);}.k{filter:url(#a);}</style><filter id="a" x="267.012" y="91.469" width="884.438" height="568.411" filterUnits="userSpaceOnUse"><feOffset dy="3" input="SourceAlpha"/><feGaussianBlur stdDeviation="10" result="b"/><feFlood flood-opacity="0.161"/><feComposite operator="in" in2="b"/><feComposite in="SourceGraphic"/></filter><filter id="c" x="138.512" y="0" width="375.328" height="930.953" filterUnits="userSpaceOnUse"><feOffset dx="-10" dy="30" input="SourceAlpha"/><feGaussianBlur stdDeviation="49.5" result="d"/><feFlood flood-opacity="0.161"/><feComposite operator="in" in2="d"/><feComposite in="SourceGraphic"/></filter></defs><g transform="translate(3739.45 -1373.531)"><g class="k" transform="matrix(1, 0, 0, 1, -3739.45, 1373.53)"><path class="a" d="M817.26,0c4.063,0,7.356,4.264,7.356,9.525V491.188L163.565,508.411.178.013Z" transform="translate(296.83 118.47)"/></g><path class="b" d="M786.534,2788.969l-227.19.031,181.5-633.984,6.028,17.509Z" transform="translate(-4183.299 -663)"/><path class="c" d="M528.719,2155,422.008,2789l-180.9-.068a11.225,11.225,0,0,1-6.076-2.884,9.387,9.387,0,0,1-2.815-5.973l-.513-616.623a8.7,8.7,0,0,1,2.365-5.3c2.365-2.649,6.56-3.138,6.56-3.138Z" transform="translate(-3971.157 -663)"/><g class="j" transform="matrix(1, 0, 0, 1, -3739.45, 1373.53)"><path class="d" d="M755.025,2792.984l-34.906-.016L676.7,2159.031Z" transform="translate(-379.68 -2040.53)"/></g><path class="e" d="M747.738,2156.237c0,18.8,78.21,633.964,78.21,633.964l737.587-.058a7.228,7.228,0,0,0,2.924-.89,12.966,12.966,0,0,0,3.261-2.506,11.654,11.654,0,0,0,1.847-3.07,10.106,10.106,0,0,0,.53-3.387l.09-132.912-641.3,0Z" transform="translate(-4190.175 -664.221)"/><text class="f" transform="translate(-3198 1579)"><tspan x="0" y="0">Owen Wattimena</tspan></text><text class="g" transform="translate(-3091 1683)"><tspan x="0" y="0">Jl. Ir. Putuhena - Waiyame</tspan></text><text class="g" transform="translate(-3005 1748)"><tspan x="0" y="0">+62 852 4414 0815</tspan></text><text class="g" transform="translate(-3054 1813)"><tspan x="0" y="0">wentoxwtt@gmail.com</tspan></text><text class="g" transform="translate(-3041 1878)"><tspan x="0" y="0">fb.com/owen.wentoks</tspan></text><text class="g" transform="translate(-3067 1943)"><tspan x="0" y="0">instagram.com/wentoks</tspan></text><text class="h" transform="translate(-2836 1622)"><tspan x="0" y="0">Wentox Wtt</tspan></text><rect class="i" width="53.334" height="53.334" transform="translate(-2726.635 1651)"/><path class="i" d="M3437,2360.725l24.022,13.94-5.439-25.423Z" transform="translate(-6181 -683.978)"/><rect class="i" width="53.334" height="53.334" transform="translate(-2726.635 1716)"/><path class="i" d="M3437,2360.725l24.022,13.939-5.439-25.423Z" transform="translate(-6181 -618.979)"/><rect class="i" width="53.334" height="53.334" transform="translate(-2726.635 1781)"/><path class="i" d="M3437,2360.725l24.022,13.939-5.439-25.423Z" transform="translate(-6181 -553.979)"/><rect class="i" width="53.334" height="53.334" transform="translate(-2726.635 1846)"/><path class="i" d="M3437,2360.725l24.022,13.939-5.439-25.423Z" transform="translate(-6180.999 -488.978)"/><rect class="i" width="53.334" height="53.334" transform="translate(-2726.635 1910)"/><path class="i" d="M3437,2360.725l24.022,13.94-5.439-25.423Z" transform="translate(-6181 -424.978)"/><g transform="translate(-2711.5 1661.473)"><path class="a" d="M82.143,0a11.583,11.583,0,0,0-11.57,11.57c0,7.917,10.354,19.541,10.795,20.032a1.042,1.042,0,0,0,1.55,0c.441-.491,10.795-12.114,10.795-20.032A11.583,11.583,0,0,0,82.143,0Zm0,17.391a5.821,5.821,0,1,1,5.821-5.821A5.828,5.828,0,0,1,82.143,17.391Z" transform="translate(-70.573)"/></g><path class="a" d="M13.618,1.31,0,11.477V27.645H27.232V11.477ZM9.85,8.565A3.937,3.937,0,0,1,11.5,6.92a5.036,5.036,0,0,1,2.391-.553,4.512,4.512,0,0,1,2.027.442,3.171,3.171,0,0,1,1.358,1.262,3.578,3.578,0,0,1,.468,1.786,3.355,3.355,0,0,1-.713,2.088,2.749,2.749,0,0,1-2.287,1.176,1,1,0,0,1-.566-.13.648.648,0,0,1-.254-.387,1.7,1.7,0,0,1-1.229.52,1.659,1.659,0,0,1-1.247-.517,1.918,1.918,0,0,1-.5-1.38,3.36,3.36,0,0,1,.6-1.942A2.173,2.173,0,0,1,13.4,8.215a1.3,1.3,0,0,1,1.19.618l.113-.5h1.2l-.684,3.245a2.639,2.639,0,0,0-.064.4.251.251,0,0,0,.051.17.16.16,0,0,0,.122.056,1,1,0,0,0,.564-.263,2.493,2.493,0,0,0,.747-.923,2.7,2.7,0,0,0,.287-1.2,2.448,2.448,0,0,0-.805-1.864A3.2,3.2,0,0,0,13.872,7.2a4.022,4.022,0,0,0-2.081.5A3.188,3.188,0,0,0,10.5,9.112,4.348,4.348,0,0,0,10.071,11a3.269,3.269,0,0,0,.483,1.737,2.812,2.812,0,0,0,1.354,1.145,5.219,5.219,0,0,0,2,.358,5.163,5.163,0,0,0,1.86-.3,2.852,2.852,0,0,0,1.255-.9h.961a3.294,3.294,0,0,1-1.386,1.443,5.316,5.316,0,0,1-2.617.6,6.088,6.088,0,0,1-2.582-.5,3.419,3.419,0,0,1-1.619-1.489,4.47,4.47,0,0,1-.526-2.146A4.861,4.861,0,0,1,9.85,8.565ZM.96,11.8l10.047,6.738L.96,26.312Zm.763,15.032,11.894-9.2,11.891,9.2Zm24.548-.517L16.226,18.536,26.271,11.8V26.312ZM14.108,9.3a1.154,1.154,0,0,1,.239.785,3.155,3.155,0,0,1-.176.986,2.317,2.317,0,0,1-.414.808,1.16,1.16,0,0,1-.34.283.959.959,0,0,1-.483.127.729.729,0,0,1-.579-.272,1.282,1.282,0,0,1-.23-.844,3.452,3.452,0,0,1,.167-.989,1.87,1.87,0,0,1,.5-.859,1.05,1.05,0,0,1,.719-.3A.76.76,0,0,1,14.108,9.3Z" transform="translate(-2713.5 1792.69)"/><path class="a" d="M23.243,0H3.989A3.994,3.994,0,0,0,0,3.989V23.243a3.994,3.994,0,0,0,3.989,3.989H12.02V17.6H8.829V12.818H12.02V9.574a4.792,4.792,0,0,1,4.787-4.787h4.84V9.574h-4.84v3.244h4.84l-.8,4.787H16.807v9.627h6.436a3.994,3.994,0,0,0,3.989-3.989V3.989A3.994,3.994,0,0,0,23.243,0Zm0,0" transform="translate(-2713.5 1858.768)"/><path class="a" d="M23.472,0H4.028A4.033,4.033,0,0,0,0,4.028V23.472A4.033,4.033,0,0,0,4.028,27.5H23.472A4.033,4.033,0,0,0,27.5,23.472V4.028A4.033,4.033,0,0,0,23.472,0ZM13.8,20.947A7.251,7.251,0,1,1,21.055,13.7,7.259,7.259,0,0,1,13.8,20.947ZM21.86,8.057A2.417,2.417,0,1,1,24.277,5.64,2.42,2.42,0,0,1,21.86,8.057Zm0,0" transform="translate(-2713.5 1922.5)"/><path class="a" d="M392.806,90a.806.806,0,1,0,.806.806A.806.806,0,0,0,392.806,90Zm0,0" transform="translate(-3084.445 1837.334)"/><path class="a" d="M157.64,150a5.64,5.64,0,1,0,5.64,5.64A5.646,5.646,0,0,0,157.64,150Zm0,0" transform="translate(-2857.336 1780.557)"/><path class="a" d="M13.616,0A13.634,13.634,0,0,0,1.927,20.623L0,27.276l6.643-1.931a13.508,13.508,0,0,0,6.973,1.931A13.638,13.638,0,0,0,13.616,0Zm8.513,19.4-.633.635c-.9.9-2.957.827-4.282.57-4.4-.852-9.538-5.837-10.529-10.154-.49-2.138-.22-4,.488-4.707l.633-.635a.9.9,0,0,1,1.267,0l2.534,2.539a.9.9,0,0,1,0,1.268l-.633.635a1.8,1.8,0,0,0,0,2.539l4.185,4.137a1.789,1.789,0,0,0,2.534,0l.633-.634a.935.935,0,0,1,1.268,0l2.534,2.538a.9.9,0,0,1,0,1.27Zm0,0" transform="translate(-2713.5 1728.5)"/></g></svg>