<svg xmlns="http://www.w3.org/2000/svg" viewBox="0 0 133.284 157.889">
  <defs>
    <style>
      .cls-1 {
        fill: #ee4323;
      }
    </style>
  </defs>
  <g id="codeigniter-seeklogo.com" transform="translate(-12 -4)">
    <path id="Path_54" data-name="Path 54" class="cls-1" d="M6.822,149.584c-2.709,0-3.5-1.577-3.5-3.941a21.019,21.019,0,0,1,.221-2.613c.593-4.088,2.042-6.426,5.539-6.426,2.365,0,3.519,1.058,3.519,2.98v.936h2.346c.026,0,.026-.862.026-1.058,0-2.807-1.7-5.47-5.888-5.47-5.69,0-8.03,3.091-8.892,9.151a15.577,15.577,0,0,0-.2,2.382c0,3.572,1.4,6.82,6.429,6.82a8.036,8.036,0,0,0,7.414-4.152L11.6,146.683c-1.453,2.291-3.03,2.9-4.779,2.9Zm15.4-11.281c-4.558,0-6.527,2.339-7.192,6.993a12.15,12.15,0,0,0-.124,1.626c0,3,1.4,5.395,5.294,5.395,4.558,0,6.554-2.439,7.218-7.021a13.354,13.354,0,0,0,.123-1.674c0-3.054-1.451-5.319-5.32-5.319Zm1.9,6.995c-.493,3.375-1.551,4.409-3.548,4.409-1.6,0-2.388-.665-2.388-2.66a12.307,12.307,0,0,1,.148-1.749c.493-3.349,1.478-4.383,3.5-4.383,1.626,0,2.438.664,2.438,2.684a11.393,11.393,0,0,1-.148,1.7Zm14.88-11.062-.763,4.522c-.049.393-.024.262.124.632a5.433,5.433,0,0,0-2.858-.9c-4.089,0-6.379,1.851-7.118,7.023a10.1,10.1,0,0,0-.123,1.651c0,3.77,2.217,5.175,5.2,5.175a5.018,5.018,0,0,0,3.448-.786l.245,1.532h2.365l2.758-18.85Zm-2.34,14.756a5.653,5.653,0,0,1-2.855.813c-1.8,0-2.291-.937-2.291-2.438a14.831,14.831,0,0,1,.173-1.947c.566-3.916,1.822-4.607,3.448-4.607a5.209,5.209,0,0,1,2.635.593l-1.111,7.585ZM49.464,138.3c-4.509,0-6.625,2.141-7.34,6.993A13.557,13.557,0,0,0,42,147c0,3.325,1.7,5.321,5.443,5.321a6.563,6.563,0,0,0,6.233-3.425l-2.488-1.01a3.7,3.7,0,0,1-3.374,1.822c-1.822,0-2.561-.49-2.561-2.116a2.421,2.421,0,0,1,.074-.787h8.891c.124-1.257.27-2.145.27-2.882,0-2.462-.935-5.617-5.023-5.617Zm1.7,5.987H45.744c.543-1.257,1.453-3.2,3.325-3.2a2.008,2.008,0,0,1,2.168,2.3,3.79,3.79,0,0,1-.074.9Zm12.8-6.284.3-2.513H57.314l-.294,2.513h1.822l-1.969,12.567H55.049l-.294,2.514H61.7l.3-2.514H60.173l1.97-12.567Zm14.115,3.77.887-2.513H76.579l-1.723.356a6.82,6.82,0,0,0-3.5-1.076c-3.524,0-6.527,1.7-6.527,5.569a4.114,4.114,0,0,0,.861,2.553,2.293,2.293,0,0,0-1.378,1.94,1.859,1.859,0,0,0,.444,1.165,4.71,4.71,0,0,0-2.388,4.083c0,3.326,3.472,4.037,6.132,4.037,3.349,0,7.341-.765,7.341-5.027,0-1.453-.911-2.588-3.547-3.08l-4.754-.888c-.541-.1-.664-.272-.664-.518a.526.526,0,0,1,.591-.565l.321.049a9.734,9.734,0,0,0,2.142.222c3.425,0,6.478-1.479,6.478-5.32a3.49,3.49,0,0,0-.344-1.5,5.38,5.38,0,0,0,1.181.518h.834Zm-6.773,10.2c.935.173,1.254.518,1.254,1.133,0,2-2.142,2.242-3.693,2.242-2.365,0-3.251-.565-3.251-1.823a3.025,3.025,0,0,1,1.06-2.414l4.631.862ZM70.3,145.519c-1.429,0-2.217-.516-2.217-1.749a2.639,2.639,0,0,1,2.907-2.882c1.478,0,2.193.616,2.193,1.821a2.568,2.568,0,0,1-2.883,2.81ZM86.831,138.3c-1.38,0-2.61.677-4.138,1.883l-.221-.923h-2.71l-1.9,13.824h3.276L82.57,142.6c.961-.591,2.142-1.449,3.152-1.449,1.231,0,1.675.594,1.675,1.726a13.2,13.2,0,0,1-.076,1.37l-1.205,8.836h3.276l1.205-8.908c.05-.417.1-1.1.1-1.5,0-2.342-1.108-4.38-3.867-4.38Zm10.09,11.32.025-.338,1.428-10.022H92.93l-.343,2.513h2.388c-.2,0-.32.22-.344.419l-.986,6.674a11.567,11.567,0,0,0-.072,1.259,2.667,2.667,0,0,0,2.855,2.958H98.1l.37-2.514H97.414c-.371,0-.493-.654-.493-.95Zm2.117-15.387h-3.2c-.2,0-.2-.725-.221-.478l-.445,3.541c-.026.223-.026.708.172.708h3.2c.2,0,.2-.861.221-1.084l.445-2.733c.025-.246.025.048-.173.048Zm6.68,15.471c-.812,0-1.206-.345-1.206-1.083l.025-.051,1.035-6.8h3.743l1.132-2.513h-4.532l.763-5.531-3.447,1.1-.617,4.429h-1.995l-.344,2.513h2.315c-.221,1.257-.444.442-.468.689l-.887,5.96a3.638,3.638,0,0,0-.049.714c0,2.34,1.724,3.216,3.795,3.216a7.056,7.056,0,0,0,4.68-1.572l-1.528-1.88a3.954,3.954,0,0,1-2.416.8Zm12.02-11.4c-4.508,0-6.625,2.141-7.34,6.993a13.827,13.827,0,0,0-.123,1.7c0,3.325,1.7,5.321,5.443,5.321a6.561,6.561,0,0,0,6.232-3.425l-2.487-1.01a3.7,3.7,0,0,1-3.375,1.822c-1.821,0-2.561-.49-2.561-2.116a2.393,2.393,0,0,1,.075-.787h8.891c.123-1.257.271-2.145.271-2.882,0-2.462-.936-5.617-5.026-5.617Zm1.7,5.987h-5.419c.542-1.257,1.452-3.2,3.325-3.2a2.008,2.008,0,0,1,2.168,2.3,3.876,3.876,0,0,1-.074.9Zm12.39-5.987a5.131,5.131,0,0,0-3.4,1.734l-.2-.774h-2.708l-1.9,13.824h3.3l1.453-10.7a5.728,5.728,0,0,1,2.783-.957,13.127,13.127,0,0,1,1.7-.02l.421-2.856a7.865,7.865,0,0,0-1.455-.245ZM48.181,124.335c-7.456-3.222-14.433-11.414-14.449-19.794C33.712,95.4,39.5,87.645,46.7,82.547c-.866,3.271-1.338,6.263.807,9.189A8.687,8.687,0,0,0,56.3,95.061C64,93.375,64.354,84.9,59.786,79.969c-4.517-4.887-8.886-10.408-7.167-17.5a18.226,18.226,0,0,1,5.806-9.26C56.3,58.8,62.338,64.3,66.315,67.044c6.9,4.758,14.468,8.353,20.812,13.93,6.673,5.861,11.6,13.787,10.6,22.979-1.078,9.963-9,16.892-17.875,20.39,18.765-4.142,38.154-18.706,38.551-39.517.329-17.121-11.416-30.3-25.965-37.841l-.761-.415A6.188,6.188,0,0,1,92.2,49.1a8.81,8.81,0,0,0,.244-1.68,8.173,8.173,0,0,1-.267,2.031L92.2,49.1a8.527,8.527,0,0,1-1.077,2.567l.214-.23c-2.9,4.814-10.761,5.86-14.643.875-6.24-8.019.131-16.665,1.022-25.156C78.829,16.514,72.155,6.183,63.879,0c4.558,7.373-1.446,17.127-6.25,22.58-4.659,5.287-10.324,9.7-15.466,14.5A128.9,128.9,0,0,0,26.787,53.73c-9.081,12.118-14.64,27.359-10.555,42.478s17.17,24.725,31.949,28.126Z" transform="translate(12 4)"/>
  </g>
</svg>
