<svg xmlns="http://www.w3.org/2000/svg" viewBox="0 0 121.214 171.063">
  <defs>
    <style>
      .cls-1 {
        fill: #e44d26;
      }

      .cls-2 {
        fill: #f16529;
      }

      .cls-3 {
        fill: #ebebeb;
      }

      .cls-4 {
        fill: #fff;
      }
    </style>
  </defs>
  <g id="HTML5_logo_and_wordmark" transform="translate(-74.6)">
    <path id="Path_62" data-name="Path 62" d="M108.4,0h7.684V7.618h7.083V0h7.684V23.053h-7.684V15.369h-7.016v7.684H108.4M141.009,7.684h-6.782V0h21.283V7.684h-6.816V23.053h-7.684M158.883,0h8.052l4.945,8.119L176.825,0h8.052V23.053h-7.684V11.627l-5.379,8.286-5.379-8.286V23.053h-7.551M188.686,0h7.684V15.436h10.892v7.618H188.686" transform="translate(-22.507)"/>
    <path id="Path_63" data-name="Path 63" class="cls-1" d="M85.626,224.353,74.6,100.6H195.814L184.788,224.286l-49.682,13.765" transform="translate(0 -66.989)"/>
    <path id="Path_64" data-name="Path 64" class="cls-2" d="M256,247.77V131h49.548l-9.455,105.578" transform="translate(-120.793 -87.232)"/>
    <path id="Path_65" data-name="Path 65" class="cls-3" d="M142,176.3h38.088v15.168h-21.45l1.4,15.536h20.046v15.135H146.143m.668,7.618h15.235l1.069,12.128,16.973,4.544v15.837l-31.139-8.687" transform="translate(-44.881 -117.397)"/>
    <path id="Path_66" data-name="Path 66" class="cls-4" d="M293.821,176.3H255.8v15.168h36.618M291.048,207H255.8v15.168h18.71l-1.771,19.712L255.8,246.429V262.2l31.072-8.62" transform="translate(-120.66 -117.397)"/>
  </g>
</svg>
