<svg xmlns="http://www.w3.org/2000/svg" viewBox="0 0 160.328 164.338">
  <defs>
    <style>
      .cls-1 {
        fill: #1a1918;
      }

      .cls-1, .cls-2 {
        fill-rule: evenodd;
      }

      .cls-2 {
        fill: #21609b;
      }
    </style>
  </defs>
  <g id="Group_19" data-name="Group 19" transform="translate(-586.15 -1971.785)">
    <path id="Path_72" data-name="Path 72" class="cls-1" d="M457.11,8.646l8.393.046S449.9,29.837,448.624,31.56a9.831,9.831,0,0,0-1.361,1.906,42.581,42.581,0,0,0-1.634,5.989l-7.68.038a31.607,31.607,0,0,0,1.146-6.572c-.043-2-1.062-3.988-1.633-5.989-.578-2.026-1.362-5.99-1.362-5.99H444l1.089,4.356L457.11,8.646" transform="translate(280.975 2085.407)"/>
    <path id="Path_73" data-name="Path 73" class="cls-1" d="M238.007,7.895c1.549.934,2.5,6.085,2.5,6.085s-8.1.12-12.515.12H224.18l-4.628,20.146h-7.078s4.4-21.893,5.445-25.863c.337-1.285,2.309-1.065,5.638-1.065h5.317c3.433,0,7.446-.438,9.134.577m-32.952,9.812a4.242,4.242,0,0,0-.748-2.791c-.828-1.277-1.592-1.574-3.771-1.642-6.15-.193-6.03,4.364-6.03,4.364Zm6.67-5.219c.9,3.251-.817,10.89-.817,10.89s-8.971-.15-13.884,0c-1.528.047-3.356-.166-3.811.545-.64,1,.234,2.529.975,3.177A6.162,6.162,0,0,0,197.3,28a102.9,102.9,0,0,0,12.335.131l-1.446,6.4s-11.8.592-17.7-.817a6.006,6.006,0,0,1-2.995-1.633c-.2-.217-.376-.514-.567-.77a7.155,7.155,0,0,1-.795-1.408c-1.348-3.591.158-10.47,1.634-14.156.171-.427.386-.969.613-1.429.283-.574.522-1.222.748-1.565.152-.237.34-.389.5-.612a9.134,9.134,0,0,1,.59-.748,11.218,11.218,0,0,1,1.906-1.633c2.458-1.841,6.906-3.27,12.251-2.723,2.012.207,5.051.926,6.534,2.995a9.138,9.138,0,0,1,.817,2.45ZM179.26,7.292l6.863-.04S182.3,25.4,180.349,34.245h-7.9c-5.518,0-10.432.683-12.523-3.267-2.028-3.836-.092-10.143.817-14.429.643-3.033,2-9.232,2-9.232l7.111-.065s-2.009,9.651-2.845,14.47c-.3,1.726-.917,3.351-.272,4.628.612,1.215,1.47,1.3,4.083,1.362.828.02,3.539,0,3.539,0l4.9-20.418M147.135,20.36c.719-2.553,1.767-5.322,1.634-7.623a6.545,6.545,0,0,0-3.539-5.172,9.069,9.069,0,0,0-9.256,2.178c-1.93,2.091-2.584,4.533-3.267,7.9-.509,2.5-.925,5.131,0,7.078,1.639,3.441,6.749,2.69,12.251,2.723C145.774,25.25,146.449,22.792,147.135,20.36Zm9.529-10.072c.784,5.7-2.224,11.992-4.3,17.464,2.113.191,3.964-.029,4.1.128.139.2-1.416,6.531-1.958,6.548-1.677.043-7.233.09-9.55.09-7.56,0-14.633.493-18.24-3.267a11.857,11.857,0,0,1-2.723-5.99A25.4,25.4,0,0,1,124.812,16a28.015,28.015,0,0,1,2.722-7.079c3.177-5.545,8.7-9.661,17.968-8.711a17.254,17.254,0,0,1,5.99,1.905c.111.065.5.376.59.43A11.851,11.851,0,0,1,156.664,10.288Zm-33.45-2.962c-.457,2.083-.915,4.443-1.4,6.5h-7.623c.59-2.281,1.043-4.549,1.634-6.534,2.439,0,4.707.033,7.386.033m-9.292,8.407h7.351c-.961,5.32-2.864,13.9-4.356,19.873-.934,3.738-1.557,6.466-4.084,8.439-.226.177-.357.093-.545.272a10.4,10.4,0,0,1-3.811,1.089,54.8,54.8,0,0,1-6.512-.022c.623-2.279,1.329-5.015,1.884-7.057,5.807.7,5.954-4.786,7.078-10.072.65-3.055,2.622-11.3,2.994-12.523" transform="translate(484.185 2090.618)"/>
    <g id="Group_18" data-name="Group 18" transform="translate(605.878 1971.785)">
      <path id="Path_74" data-name="Path 74" class="cls-2" d="M118.472,93.261l-.538,1.4c-9.174,17.866-25.432,28.827-48.62,29.31A67.978,67.978,0,0,1,41.4,118.385,72.111,72.111,0,0,1,7.9,86.747C-1.693,68.165-3.424,42.315,16.526,23.008c.308,0-2.42,4.187-2.112,4.187l-.549,1.787C-.511,73.989,43.78,112.56,86.836,108.149c10.347-1.061,23.542-6.727,31.636-14.887" transform="translate(-0.981 -4.806)"/>
      <path id="Path_75" data-name="Path 75" class="cls-2" d="M83.455,77.8c10.832.074,22.146-4.989,28.847-12.1-5.862,14.879-22.835,24.443-45.594,21.4C47.65,84.56,29.5,65.383,27.626,46.167c-1.367-13.985,3.506-22.331,11.538-32.456A33.963,33.963,0,0,0,35.07,25.695C32.019,55.947,59.236,77.646,83.455,77.8" transform="translate(7.982 -7.96)"/>
      <path id="Path_76" data-name="Path 76" class="cls-2" d="M103.381,41.687C101.7,45.549,92,52.843,87.721,53.755c-16.954,3.612-27.812-4.428-33.5-13.576a41.9,41.9,0,0,1-2.688-6.047c-2.206-7.5-1.192-18.844,5.388-24.715C54.94,15,54.65,21.485,55.694,25.7a36.163,36.163,0,0,0,4.485,9.8c3.506,5.1,5.731,6.337,10.235,9.046a27.152,27.152,0,0,0,5.146,2.464c4.271,1.258,13.288,4.57,27.824-5.322" transform="translate(15.814 -9.417)"/>
    </g>
  </g>
</svg>
