<svg xmlns="http://www.w3.org/2000/svg" viewBox="0 0 232.742 158.063">
  <defs>
    <style>
      .cls-1 {
        fill: #5d87a1;
      }

      .cls-2 {
        fill: #f8981d;
      }
    </style>
  </defs>
  <g id="Group_17" data-name="Group 17" transform="translate(-1384.349 -1791.83)">
    <path id="Path_58" data-name="Path 58" class="cls-1" d="M63.765,136.32H54.785q-.476-22.738-2.622-42.763h-.08L38.41,136.32H31.572L17.981,93.557H17.9Q16.391,112.788,16,136.32H7.81Q8.6,107.7,11.782,82.664H22.913L35.867,122.09h.08L48.982,82.664h10.65Q63.13,112,63.765,136.32m38.947-39.587Q97.227,126.5,88.244,139.992q-7,10.391-15.341,10.395a15.078,15.078,0,0,1-5.484-1.336v-4.784a26.413,26.413,0,0,0,3.735.239,9.026,9.026,0,0,0,6.282-2.148,7.837,7.837,0,0,0,2.858-5.879q0-2.233-2.225-9.142l-9.855-30.6h8.823l7.073,22.89q2.384,7.8,1.987,10.893a149.515,149.515,0,0,0,8.109-33.784h8.505v0Z" transform="translate(1376.539 1799.506)"/>
    <path id="Path_59" data-name="Path 59" class="cls-2" d="M179.646,136.658h-25.51V83h8.581v47.051h16.928Zm-32.188,1.3-9.864-4.868a18.329,18.329,0,0,0,2.464-2.4q6.289-7.387,6.284-21.855,0-26.627-20.9-26.631-10.251,0-15.978,6.759-6.284,7.393-6.28,21.781,0,14.148,5.562,20.739,5.089,5.964,15.346,5.966a24.725,24.725,0,0,0,7.025-.942l12.842,7.476ZM115.5,125.921q-3.259-5.243-3.259-16.845,0-20.265,12.321-20.273,6.443,0,9.456,4.845,3.254,5.25,3.261,16.692,0,20.431-12.319,20.432-6.445,0-9.459-4.852m-16.063-4.135a14.235,14.235,0,0,1-5,11.207q-5.008,4.368-13.427,4.371a26.888,26.888,0,0,1-15.261-5.012l2.306-4.607a26.106,26.106,0,0,0,11.519,3.177,12.1,12.1,0,0,0,7.592-2.138,7.288,7.288,0,0,0,2.922-5.958c0-3.188-2.223-5.912-6.3-8.194-3.761-2.065-11.282-6.383-11.282-6.383-4.076-2.971-6.117-6.161-6.117-11.415A13.33,13.33,0,0,1,70.958,86.3q4.574-4.022,11.806-4.017A24.477,24.477,0,0,1,96.35,86.263l-2.069,4.609a26.269,26.269,0,0,0-10.327-2.223A9.2,9.2,0,0,0,77.6,90.638a6.647,6.647,0,0,0-2.407,5.09c0,3.172,2.27,5.931,6.459,8.259,3.811,2.069,11.519,6.461,11.519,6.461,4.18,2.966,6.268,6.126,6.268,11.339" transform="translate(1419.146 1799.167)"/>
    <path id="Path_60" data-name="Path 60" class="cls-1" d="M174.793,102.974c-5.189-.132-9.206.39-12.578,1.817-.974.389-2.521.389-2.657,1.619.526.521.587,1.361,1.043,2.079a15.064,15.064,0,0,0,3.37,3.95c1.359,1.041,2.723,2.072,4.153,2.98,2.521,1.56,5.38,2.468,7.837,4.023,1.432.9,2.855,2.074,4.288,3.047.7.519,1.156,1.361,2.07,1.685v-.2c-.458-.583-.588-1.426-1.038-2.076l-1.947-1.878a30.854,30.854,0,0,0-6.74-6.544c-2.076-1.43-6.615-3.374-7.457-5.765l-.132-.132a25.827,25.827,0,0,0,4.474-1.048c2.206-.581,4.217-.449,6.48-1.031,1.041-.26,2.074-.587,3.118-.908v-.585c-1.173-1.168-2.01-2.719-3.243-3.823a86.317,86.317,0,0,0-10.7-7.974c-2.013-1.3-4.6-2.136-6.745-3.242-.772-.39-2.074-.583-2.528-1.232a26.409,26.409,0,0,1-2.66-4.993c-1.874-3.563-3.695-7.516-5.312-11.283-1.17-2.527-1.881-5.05-3.308-7.387C137.9,53.056,130.647,46.382,119.5,39.831c-2.4-1.364-5.248-1.945-8.293-2.66l-4.864-.257c-1.038-.455-2.077-1.689-2.983-2.272-3.7-2.332-13.225-7.387-15.946-.713C85.656,38.148,90,42.3,91.494,44.435a29.8,29.8,0,0,1,3.3,4.862c.456,1.1.585,2.272,1.041,3.436a77.652,77.652,0,0,0,3.372,8.689,30.936,30.936,0,0,0,2.4,4.012c.521.718,1.426,1.036,1.624,2.207-.9,1.291-.975,3.24-1.494,4.861-2.332,7.325-1.421,16.4,1.885,21.782,1.034,1.621,3.5,5.189,6.8,3.821,2.922-1.166,2.275-4.861,3.115-8.1.193-.783.066-1.3.455-1.81v.127c.9,1.813,1.817,3.561,2.655,5.38a36.964,36.964,0,0,0,8.43,8.68c1.553,1.173,2.784,3.179,4.729,3.9v-.194h-.128a7.263,7.263,0,0,0-1.487-1.293,31.48,31.48,0,0,1-3.372-3.889,83.5,83.5,0,0,1-7.257-11.8c-1.045-2.013-1.945-4.213-2.787-6.223-.392-.776-.392-1.945-1.043-2.336-.975,1.425-2.4,2.659-3.108,4.4-1.234,2.792-1.362,6.226-1.82,9.8l-.255.125c-2.065-.519-2.784-2.655-3.568-4.469-1.942-4.606-2.268-12-.583-17.312.451-1.359,2.4-5.638,1.624-6.933-.39-1.241-1.689-1.947-2.4-2.924a26.352,26.352,0,0,1-2.336-4.148c-1.555-3.629-2.338-7.649-4.012-11.276a34.924,34.924,0,0,0-3.242-5c-1.236-1.749-2.594-2.981-3.571-5.055-.323-.713-.776-1.879-.257-2.655a1.032,1.032,0,0,1,.908-.845c.84-.71,3.24.193,4.082.583a32.845,32.845,0,0,1,6.419,3.24c.908.651,1.881,1.883,3.046,2.207h1.364c2.07.451,4.4.125,6.353.711a41.734,41.734,0,0,1,9.336,4.47,57.523,57.523,0,0,1,20.22,22.175c.776,1.489,1.105,2.853,1.813,4.406,1.366,3.179,3.054,6.421,4.41,9.532a42.713,42.713,0,0,0,4.606,8.686c.97,1.361,4.868,2.074,6.615,2.787a45.734,45.734,0,0,1,4.472,1.812c2.206,1.359,4.4,2.919,6.476,4.413,1.033.777,4.278,2.4,4.47,3.7M108.665,46.637a10.1,10.1,0,0,0-2.653.326v.13h.125a21.153,21.153,0,0,0,2.077,2.659c.522,1.039.975,2.07,1.487,3.108l.125-.128A3.643,3.643,0,0,0,111.2,49.49a14.826,14.826,0,0,1-.783-1.361c-.382-.649-1.223-.972-1.748-1.492" transform="translate(1434.771 1761.224)"/>
    <path id="Path_61" data-name="Path 61" class="cls-2" d="M146.554,116.364H147.9v-6.574h-2.015l-1.643,4.486-1.786-4.486h-1.94v6.574h1.269v-5h.071l1.871,5h.967l1.864-5v5Zm-10.82,0h1.421V110.9h1.86v-1.116H133.8V110.9h1.935l0,5.459Z" transform="translate(1469.184 1819.453)"/>
  </g>
</svg>
