<svg xmlns="http://www.w3.org/2000/svg" xmlns:xlink="http://www.w3.org/1999/xlink" viewBox="0 0 281 158.063">
  <defs>
    <style>
      .cls-1 {
        clip-path: url(#clip-path);
      }

      .cls-2 {
        fill: url(#radial-gradient);
      }

      .cls-3 {
        clip-path: url(#clip-path-2);
      }

      .cls-4 {
        fill: #777bb3;
      }

      .cls-5 {
        fill: #fff;
      }
    </style>
    <clipPath id="clip-path">
      <path id="path3446" d="M14.4-313.347c0,39.185,60.389,70.952,134.88,70.952h0c74.491,0,134.88-31.767,134.88-70.952h0c0-39.185-60.39-70.952-134.88-70.952h0c-74.491,0-134.88,31.767-134.88,70.952" transform="translate(-14.4 384.299)"/>
    </clipPath>
    <radialGradient id="radial-gradient" cx="183.941" cy="-355.898" r="336.7" gradientTransform="matrix(0.526, 0, 0, -0.526, 80.356, 43.341)" gradientUnits="userSpaceOnUse">
      <stop offset="0" stop-color="#aeb2d5"/>
      <stop offset="0.3" stop-color="#aeb2d5"/>
      <stop offset="0.75" stop-color="#484c89"/>
      <stop offset="1" stop-color="#484c89"/>
    </radialGradient>
    <clipPath id="clip-path-2">
      <path id="path3470" d="M0-405H281v158.063H0Z" transform="translate(0 405)"/>
    </clipPath>
  </defs>
  <g id="PHP-logo" transform="translate(0 405)">
    <g id="g3440" transform="translate(5.62 -396.921)">
      <g id="g3442" class="cls-1" transform="translate(0 0)">
        <g id="g3448">
          <g id="g3450">
            <path id="path3462" class="cls-2" d="M14.4-313.347c0,39.185,60.389,70.952,134.88,70.952h0c74.491,0,134.88-31.767,134.88-70.952h0c0-39.185-60.39-70.952-134.88-70.952h0c-74.491,0-134.88,31.767-134.88,70.952" transform="translate(-14.4 384.299)"/>
          </g>
        </g>
      </g>
    </g>
    <g id="g3464" transform="translate(0 -405)">
      <g id="g3466" class="cls-3">
        <g id="g3472" transform="translate(10.889 13.347)">
          <path id="path3474" class="cls-4" d="M-202.489-205.234c71.581,0,129.611-29.408,129.611-65.684S-130.907-336.6-202.489-336.6-332.1-307.194-332.1-270.918s58.03,65.684,129.611,65.684" transform="translate(332.1 336.603)"/>
        </g>
      </g>
    </g>
    <g id="g3476" transform="translate(0 -405)">
      <g id="g3478" class="cls-3">
        <g id="g3484" transform="translate(46.673 46.196)">
          <path id="path3486" d="M-50.349-64.021c5.886,0,10.28-1.085,13.06-3.225,2.75-2.118,4.65-5.787,5.646-10.9.928-4.784.575-8.124-1.051-9.927-1.662-1.841-5.256-2.775-10.68-2.775h-9.406L-58-64.021ZM-81.115-30.969a1.462,1.462,0,0,1-1.129-.533,1.463,1.463,0,0,1-.307-1.21l13.82-71.1A1.464,1.464,0,0,1-67.294-105h29.785c9.361,0,16.328,2.542,20.708,7.555,4.4,5.04,5.762,12.085,4.041,20.939a33.421,33.421,0,0,1-3.581,9.956,33.337,33.337,0,0,1-6.591,8.259,28.916,28.916,0,0,1-10.848,6.5,49.138,49.138,0,0,1-14.9,1.917H-60.745l-3.444,17.72a1.463,1.463,0,0,1-1.436,1.184Z" transform="translate(82.578 105)"/>
        </g>
        <g id="g3488" transform="translate(45.21 44.732)">
          <path id="path3490" class="cls-5" d="M-50.722-26.675h8.2c6.547,0,8.822,1.437,9.594,2.293,1.282,1.422,1.524,4.419.7,8.668-.926,4.757-2.642,8.129-5.1,10.023C-39.848-3.753-43.942-2.771-49.5-2.771h-5.871ZM-36.657-43.75H-66.443a2.927,2.927,0,0,0-2.873,2.368l-13.82,71.1a2.928,2.928,0,0,0,.614,2.42,2.927,2.927,0,0,0,2.259,1.065h15.489A2.927,2.927,0,0,0-61.9,30.839L-58.686,14.3h10.854a50.567,50.567,0,0,0,15.357-1.989A30.378,30.378,0,0,0-21.082,5.493a34.815,34.815,0,0,0,6.869-8.614,34.882,34.882,0,0,0,3.741-10.392c1.812-9.32.34-16.783-4.376-22.18-4.67-5.346-12.008-8.056-21.81-8.056M-58.919.156H-49.5q9.367,0,13.953-3.529t6.19-11.785q1.537-7.927-1.4-11.186T-42.523-29.6H-53.135L-58.919.156m22.262-40.979q13.44,0,19.606,7.055t3.706,19.7a31.836,31.836,0,0,1-3.422,9.522,31.754,31.754,0,0,1-6.3,7.9,27.358,27.358,0,0,1-10.31,6.185,47.481,47.481,0,0,1-14.451,1.845H-61.1l-3.674,18.9H-80.262l13.82-71.1h29.786" transform="translate(83.189 43.75)"/>
        </g>
        <g id="g3492" transform="translate(112.611 27.292)">
          <path id="path3494" d="M-61.544-115.657a1.461,1.461,0,0,1-1.129-.533,1.461,1.461,0,0,1-.308-1.21l6.113-31.461c.582-2.992.438-5.139-.4-6.047-.515-.555-2.063-1.485-6.638-1.485H-74.984l-7.686,39.551a1.464,1.464,0,0,1-1.437,1.184H-99.474a1.463,1.463,0,0,1-1.129-.533,1.463,1.463,0,0,1-.307-1.21l13.82-71.1a1.464,1.464,0,0,1,1.437-1.184h15.367a1.464,1.464,0,0,1,1.129.532,1.464,1.464,0,0,1,.307,1.21l-3.335,17.161h11.914c9.076,0,15.231,1.6,18.816,4.892,3.654,3.358,4.794,8.728,3.389,15.962l-6.43,33.088a1.463,1.463,0,0,1-1.437,1.184Z" transform="translate(100.938 189.688)"/>
        </g>
        <g id="g3496" transform="translate(111.148 25.828)">
          <path id="path3498" class="cls-5" d="M-50.171,0H-65.538a2.927,2.927,0,0,0-2.873,2.368l-13.82,71.1a2.926,2.926,0,0,0,.615,2.42,2.927,2.927,0,0,0,2.259,1.065h15.367a2.927,2.927,0,0,0,2.873-2.368l7.456-38.367h9.869c4.568,0,5.526.976,5.565,1.018.277.3.642,1.679.04,4.772L-44.3,73.473a2.926,2.926,0,0,0,.615,2.42,2.927,2.927,0,0,0,2.259,1.065h15.611a2.927,2.927,0,0,0,2.873-2.368L-16.514,41.5c1.509-7.767.218-13.593-3.835-17.319C-24.217,20.631-30.7,18.9-40.155,18.9H-50.295l3-15.418a2.928,2.928,0,0,0-.615-2.42A2.927,2.927,0,0,0-50.171,0m0,2.927-3.674,18.9h13.69q12.921,0,17.825,4.507t2.943,14.605l-6.43,33.088H-41.428l6.113-31.46q1.044-5.368-.768-7.322t-7.71-1.953H-56.075l-7.916,40.735H-79.358l13.82-71.1h15.367" transform="translate(82.285)"/>
        </g>
        <g id="g3500" transform="translate(167.57 46.196)">
          <path id="path3502" d="M-50.349-64.021c5.886,0,10.28-1.085,13.06-3.225,2.75-2.117,4.65-5.786,5.646-10.9.928-4.784.575-8.124-1.051-9.927-1.662-1.841-5.256-2.775-10.68-2.775h-9.406L-58-64.021ZM-81.114-30.969a1.462,1.462,0,0,1-1.129-.533,1.463,1.463,0,0,1-.308-1.21l13.82-71.1A1.464,1.464,0,0,1-67.294-105h29.785c9.361,0,16.328,2.542,20.708,7.555,4.4,5.039,5.762,12.084,4.041,20.939a33.449,33.449,0,0,1-3.582,9.956,33.337,33.337,0,0,1-6.591,8.259,28.916,28.916,0,0,1-10.848,6.5,49.138,49.138,0,0,1-14.9,1.917H-60.745l-3.443,17.72a1.464,1.464,0,0,1-1.437,1.184Z" transform="translate(82.578 105)"/>
        </g>
        <g id="g3504" transform="translate(166.106 44.732)">
          <path id="path3506" class="cls-5" d="M-50.722-26.675h8.2c6.547,0,8.822,1.437,9.594,2.293,1.283,1.422,1.525,4.419.7,8.667-.926,4.757-2.643,8.129-5.1,10.023C-39.847-3.753-43.941-2.771-49.5-2.771h-5.87ZM-36.656-43.75H-66.441a2.927,2.927,0,0,0-2.873,2.368l-13.82,71.1a2.928,2.928,0,0,0,.614,2.42,2.927,2.927,0,0,0,2.259,1.065h15.489A2.927,2.927,0,0,0-61.9,30.839L-58.685,14.3h10.854a50.566,50.566,0,0,0,15.357-1.989A30.378,30.378,0,0,0-21.08,5.492a34.8,34.8,0,0,0,6.868-8.613,34.882,34.882,0,0,0,3.741-10.392c1.812-9.32.34-16.783-4.376-22.181-4.67-5.345-12.007-8.056-21.81-8.056M-58.918.156H-49.5q9.367,0,13.953-3.529t6.19-11.785q1.538-7.927-1.4-11.186T-42.522-29.6H-53.134L-58.918.156m22.261-40.979q13.44,0,19.606,7.055t3.706,19.7a31.836,31.836,0,0,1-3.422,9.522,31.754,31.754,0,0,1-6.3,7.9,27.358,27.358,0,0,1-10.31,6.185,47.481,47.481,0,0,1-14.451,1.845H-61.1l-3.673,18.9H-80.261l13.82-71.1h29.785" transform="translate(83.188 43.75)"/>
        </g>
      </g>
    </g>
  </g>
</svg>
