<svg xmlns="http://www.w3.org/2000/svg" viewBox="0 0 243.433 153.517">
  <defs>
    <style>
      .cls-1 {
        fill: #292323;
      }

      .cls-2 {
        fill: #e4ae30;
      }

      .cls-3 {
        fill: #ff8a65;
      }

      .cls-4 {
        fill: #f41e1e;
      }
    </style>
  </defs>
  <g id="Group_16" data-name="Group 16" transform="translate(-423.861 -1215.483)">
    <g id="Group_15" data-name="Group 15" transform="translate(0 -296)">
      <path id="Path_36" data-name="Path 36" class="cls-1" d="M-2296.139-329.152l109.916,31.093,92.733-36.548-108.279-22.91Z" transform="translate(2720 1869)"/>
      <path id="Path_37" data-name="Path 37" class="cls-1" d="M-2130.28-198.408s59.191,17.723,63.313,17.628,34.512-13.656,34.512-13.656.219,24.069,0,24.953a9.2,9.2,0,0,1-3.006,3.517c-1.347,1.012-4.879,3.586-12.236,5.832s-10.061,2.33-17.189,3.151-24.733.955-24.733.955a131.411,131.411,0,0,1-24.351-3.629c-11.818-3.106-16.31-9.826-16.31-9.826Z" transform="translate(2601.464 1755.288)"/>
      <path id="Path_38" data-name="Path 38" class="cls-1" d="M-2200.99-234.8l-.294,27.694h3.012V-234.8Z" transform="translate(2652.209 1781.299)"/>
      <ellipse id="Ellipse_8" data-name="Ellipse 8" class="cls-1" cx="3.709" cy="3.709" rx="3.709" ry="3.709" transform="translate(448.724 1560.705)"/>
      <path id="Path_39" data-name="Path 39" class="cls-1" d="M-2216.1-152.674s-2.388.367-3.857,8.374-3.893,21.744-3.893,21.744-1.4,4.554,2.13,4.922,10.578.294,10.578.294a3.179,3.179,0,0,0,3.012-4.261c-.955-4.114-4.676-25.089-4.676-25.089s-1.389-4.6-2.341-4.732S-2216.1-152.674-2216.1-152.674Z" transform="translate(2668.534 1722.602)"/>
    </g>
    <ellipse id="Ellipse_9" data-name="Ellipse 9" class="cls-2" cx="7.561" cy="7.561" rx="7.561" ry="7.561" transform="translate(592.239 1327.19)"/>
    <path id="Path_40" data-name="Path 40" class="cls-3" d="M-1713.293-81.837s4.4,3.735,6.193,7.328,4.16,9.786,4.16,9.786,6.808,1.844,7.942,6.051a11.969,11.969,0,0,1,0,7.044l52.688-10.661s5.745-2.151,6.123-9.763-2.936-18.177-5.333-21.533-10.327-8.975-14.355-7.8S-1692.388-88.79-1695-88.071-1713.293-81.837-1713.293-81.837Z" transform="translate(2303.45 1390.06)"/>
    <path id="Path_41" data-name="Path 41" class="cls-3" d="M-2022.767,33.793c3.843-1.246,82.053-25.135,82.053-25.135s-2.7-3.364-2.423-6.665a10.793,10.793,0,0,1,2.07-5.483s-4.512-11.4-9.386-14.833-6.471-2.8-6.471-2.8-30.414,6.4-44.592,8.828-34.266,6.506-34.266,6.506,7.909,3.681,10.386,8.156,5.163,9.729,5.654,13.293.553,10.755-.369,12.845S-2022.767,33.793-2022.767,33.793Z" transform="translate(2533.928 1332.616)"/>
    <path id="Path_42" data-name="Path 42" class="cls-3" d="M-2084.318,59.69l10.2-2.827s2.335-5.777,8.85-1.905,4.978,18.069,1.168,16.409-5.395-1.56-6.038-5.252.168-7.245,2.49-6.854a4.928,4.928,0,0,1,3.72,4.14c-.056,1.119-1.007,3.273-1.762.727s-2.014-3.832-2.8-2.042.364,7.273,3.049,6.993,2.909-5.091,2.657-6.154-2.406-6.63-4.448-6.77-4.364.364-5.147,2.518-1.709,11.526,4.484,17.341,10.07-1.135,10.07-1.135a27.522,27.522,0,0,0,1.8-11.954c-.662-6.058-4.113-13.622-7.091-16.459s-7.8-6.382-12.623-4.444-7.63,8.2-8.3,12.427S-2084.318,59.69-2084.318,59.69Z" transform="translate(2568.697 1287.852)"/>
    <path id="Path_43" data-name="Path 43" class="cls-4" d="M-1679.5,93.121h2.888s2.033,23.732,1.986,23.543a27.523,27.523,0,0,0-2.6-1.891s-2.277,3.64-2.273,3.262S-1679.5,93.121-1679.5,93.121Z" transform="translate(2279.3 1250.937)"/>
    <path id="Path_44" data-name="Path 44" class="cls-4" d="M-1667.225,89.687s4.444,12.434,4.444,12.008a16.024,16.024,0,0,1,1.182-2.647s2.931,1.135,2.553.662-6.429-11.393-6.429-11.393Z" transform="translate(2270.527 1254.372)"/>
  </g>
</svg>
